<?xml version="1.0" encoding="UTF-8" standalone="no"?>
<!DOCTYPE svg PUBLIC "-//W3C//DTD SVG 1.1//EN"
 "http://www.w3.org/Graphics/SVG/1.1/DTD/svg11.dtd">
<!-- Generated by graphviz version 2.43.0 (0)
 -->
<!-- Title: pastafarianism Pages: 1 -->
<svg width="769pt" height="188pt"
 viewBox="0.00 0.00 768.91 188.00" xmlns="http://www.w3.org/2000/svg" xmlns:xlink="http://www.w3.org/1999/xlink">
<g id="graph0" class="graph" transform="scale(1 1) rotate(0) translate(4 184)">
<title>pastafarianism</title>
<polygon fill="white" stroke="transparent" points="-4,4 -4,-184 764.91,-184 764.91,4 -4,4"/>
<!-- Loop -->
<g id="node1" class="node">
<title>Loop</title>
<polygon fill="orange" stroke="black" points="447.12,-180 393.12,-180 393.12,-144 447.12,-144 447.12,-180"/>
<text text-anchor="middle" x="420.12" y="-159.8" font-family="Times,serif" font-size="9.00">Ⓜ Loop</text>
</g>
<!-- loop_terminator -->
<g id="node2" class="node">
<title>loop_terminator</title>
<polygon fill="orange" stroke="black" points="164.12,-108 62.12,-108 62.12,-72 164.12,-72 164.12,-108"/>
<text text-anchor="middle" x="113.12" y="-87.8" font-family="Times,serif" font-size="9.00">Ⓜ loop_terminator</text>
</g>
<!-- Loop&#45;&gt;loop_terminator -->
<g id="edge1" class="edge">
<title>Loop&#45;&gt;loop_terminator</title>
<path fill="none" stroke="black" d="M392.94,-155.77C349,-147.18 259.46,-129.14 173.98,-108.14"/>
<polygon fill="black" stroke="black" points="174.67,-104.7 164.12,-105.69 172.99,-111.49 174.67,-104.7"/>
</g>
<!-- set_point -->
<g id="node5" class="node">
<title>set_point</title>
<ellipse fill="gray" stroke="black" cx="216.12" cy="-90" rx="34.13" ry="18"/>
<text text-anchor="middle" x="216.12" y="-87.8" font-family="Times,serif" font-size="9.00">set_point</text>
</g>
<!-- Loop&#45;&gt;set_point -->
<g id="edge4" class="edge">
<title>Loop&#45;&gt;set_point</title>
<path fill="none" stroke="black" d="M392.89,-152.57C360.74,-142.5 305.74,-124.87 259.12,-108 256.74,-107.14 254.29,-106.23 251.84,-105.31"/>
<polygon fill="black" stroke="black" points="252.99,-102 242.4,-101.67 250.48,-108.53 252.99,-102"/>
</g>
<!-- move_to_pick -->
<g id="node6" class="node">
<title>move_to_pick</title>
<ellipse fill="gray" stroke="black" cx="313.12" cy="-90" rx="45.07" ry="18"/>
<text text-anchor="middle" x="313.12" y="-87.8" font-family="Times,serif" font-size="9.00">move_to_pick</text>
</g>
<!-- Loop&#45;&gt;move_to_pick -->
<g id="edge5" class="edge">
<title>Loop&#45;&gt;move_to_pick</title>
<path fill="none" stroke="black" d="M393.94,-143.88C378.91,-134.04 359.94,-121.63 344.15,-111.31"/>
<polygon fill="black" stroke="black" points="346.04,-108.36 335.76,-105.81 342.21,-114.22 346.04,-108.36"/>
</g>
<!-- check_object -->
<g id="node7" class="node">
<title>check_object</title>
<ellipse fill="gray" stroke="black" cx="420.12" cy="-90" rx="44.41" ry="18"/>
<text text-anchor="middle" x="420.12" y="-87.8" font-family="Times,serif" font-size="9.00">check_object</text>
</g>
<!-- Loop&#45;&gt;check_object -->
<g id="edge6" class="edge">
<title>Loop&#45;&gt;check_object</title>
<path fill="none" stroke="black" d="M420.12,-143.7C420.12,-135.98 420.12,-126.71 420.12,-118.11"/>
<polygon fill="black" stroke="black" points="423.62,-118.1 420.12,-108.1 416.62,-118.1 423.62,-118.1"/>
</g>
<!-- get_object -->
<g id="node8" class="node">
<title>get_object</title>
<ellipse fill="gray" stroke="black" cx="520.12" cy="-90" rx="37.56" ry="18"/>
<text text-anchor="middle" x="520.12" y="-87.8" font-family="Times,serif" font-size="9.00">get_object</text>
</g>
<!-- Loop&#45;&gt;get_object -->
<g id="edge7" class="edge">
<title>Loop&#45;&gt;get_object</title>
<path fill="none" stroke="black" d="M444.58,-143.88C458.69,-134 476.52,-121.52 491.31,-111.17"/>
<polygon fill="black" stroke="black" points="493.43,-113.95 499.61,-105.35 489.41,-108.22 493.43,-113.95"/>
</g>
<!-- move_to_place -->
<g id="node9" class="node">
<title>move_to_place</title>
<ellipse fill="gray" stroke="black" cx="623.12" cy="-90" rx="47.84" ry="18"/>
<text text-anchor="middle" x="623.12" y="-87.8" font-family="Times,serif" font-size="9.00">move_to_place</text>
</g>
<!-- Loop&#45;&gt;move_to_place -->
<g id="edge8" class="edge">
<title>Loop&#45;&gt;move_to_place</title>
<path fill="none" stroke="black" d="M447.49,-151.56C481.39,-139.87 539.53,-119.82 579.57,-106.02"/>
<polygon fill="black" stroke="black" points="580.77,-109.31 589.08,-102.74 578.48,-102.69 580.77,-109.31"/>
</g>
<!-- let_object -->
<g id="node10" class="node">
<title>let_object</title>
<ellipse fill="gray" stroke="black" cx="725.12" cy="-90" rx="35.59" ry="18"/>
<text text-anchor="middle" x="725.12" y="-87.8" font-family="Times,serif" font-size="9.00">let_object</text>
</g>
<!-- Loop&#45;&gt;let_object -->
<g id="edge9" class="edge">
<title>Loop&#45;&gt;let_object</title>
<path fill="none" stroke="black" d="M447.41,-156.91C495.15,-149.44 596.69,-132.09 680.12,-108 682.9,-107.2 685.75,-106.3 688.61,-105.35"/>
<polygon fill="black" stroke="black" points="689.96,-108.58 698.23,-101.96 687.63,-101.98 689.96,-108.58"/>
</g>
<!-- objects_below_2 -->
<g id="node3" class="node">
<title>objects_below_2</title>
<ellipse fill="gray" stroke="black" cx="53.12" cy="-18" rx="53.23" ry="18"/>
<text text-anchor="middle" x="53.12" y="-15.8" font-family="Times,serif" font-size="9.00">objects_below_2</text>
</g>
<!-- loop_terminator&#45;&gt;objects_below_2 -->
<g id="edge2" class="edge">
<title>loop_terminator&#45;&gt;objects_below_2</title>
<path fill="none" stroke="black" d="M98.28,-71.7C90.98,-63.18 82.06,-52.76 74.07,-43.45"/>
<polygon fill="black" stroke="black" points="76.53,-40.94 67.36,-35.62 71.21,-45.49 76.53,-40.94"/>
</g>
<!-- points_below_5 -->
<g id="node4" class="node">
<title>points_below_5</title>
<ellipse fill="gray" stroke="black" cx="174.12" cy="-18" rx="50.46" ry="18"/>
<text text-anchor="middle" x="174.12" y="-15.8" font-family="Times,serif" font-size="9.00">points_below_5</text>
</g>
<!-- loop_terminator&#45;&gt;points_below_5 -->
<g id="edge3" class="edge">
<title>loop_terminator&#45;&gt;points_below_5</title>
<path fill="none" stroke="black" d="M128.19,-71.7C135.69,-63.09 144.88,-52.55 153.06,-43.17"/>
<polygon fill="black" stroke="black" points="155.7,-45.46 159.63,-35.62 150.42,-40.86 155.7,-45.46"/>
</g>
</g>
</svg>
